<svg width="123" height="30" viewBox="0 0 123 30" fill="none" xmlns="http://www.w3.org/2000/svg">
  <path d="M0.960938 12.0982C0.960938 5.13651 5.36073 0.369629 12.7212 0.369629C18.7233 0.369629 22.2645 3.47526 23.187 8.4301L20.0475 8.7424C19.3379 5.16832 16.7221 2.97211 12.5665 2.97211C7.2711 2.97211 4.13163 6.54764 4.13163 12.0678C4.13163 17.3985 7.30232 21.256 12.6587 21.256C16.6001 21.256 19.2471 19.2492 20.2008 15.7619L23.1813 16.2954C21.8898 20.8425 18.4977 23.8845 12.592 23.8845C5.02436 23.8903 0.960938 18.8733 0.960938 12.0982ZM25.0349 15.4236C25.0349 10.3429 28.5746 7.11151 33.8345 7.11151C39.0944 7.11151 42.6086 10.3429 42.6086 15.4236C42.6086 20.5042 39.1029 23.7356 33.8388 23.7356C28.5746 23.7356 25.0349 20.5042 25.0349 15.4236ZM39.7501 15.4236C39.7501 11.6283 37.4722 9.49567 33.8388 9.49567C30.2054 9.49567 27.9289 11.6283 27.9289 15.4236C27.9289 19.2188 30.2068 21.3514 33.8388 21.3514C37.4707 21.3514 39.7501 19.2174 39.7501 15.4236ZM53.0191 7.14332C53.4108 7.14127 53.802 7.17271 54.1885 7.23729V9.9352C53.8715 9.89612 53.5527 9.87488 53.2334 9.87159C51.2946 9.87159 50.0939 10.4369 49.231 11.3781C47.8457 12.824 47.63 14.8582 47.63 16.8968V23.2585H44.922V7.58285H47.4455V11.5661C48.246 9.02578 50.2784 7.14332 53.0191 7.14332ZM56.0975 7.57706H58.7147V10.6567C59.9764 8.39829 62.4701 7.10862 65.4563 7.10862C70.1669 7.10862 73.3064 10.4022 73.3064 15.451C73.3064 20.4102 69.981 23.7356 65.3016 23.7356C62.3466 23.7356 59.8217 22.3548 58.8055 20.5996V29.3743H56.0975V7.57706ZM70.4437 15.4481C70.4437 11.7483 68.2878 9.52025 64.7481 9.52025C61.2084 9.52025 58.7445 11.715 58.7445 15.0708V15.7937C58.7445 19.1494 61.0537 21.3138 64.5636 21.3138C68.1955 21.3196 70.4437 19.1234 70.4437 15.4539V15.4481ZM74.8761 19.0858C74.8761 17.5807 75.5531 16.2954 76.7851 15.5117C77.9205 14.8206 79.4022 14.3551 82.5105 14.0659L88.2373 13.6322V13.343C88.2373 10.6147 86.6051 9.3294 83.4657 9.3294C80.4851 9.3294 78.6316 10.4861 78.3562 12.6215H75.3998C75.7376 9.33952 78.8161 7.10862 83.4657 7.10862C88.5141 7.10862 90.9765 9.21374 90.9765 13.6669V17.8077C90.9765 20.4738 91.1 21.856 91.4392 23.2643H88.6006C88.4488 22.2593 88.3667 21.2447 88.3551 20.228C87.1842 22.4864 84.7529 23.7414 81.1167 23.7414C77.3386 23.7356 74.8761 21.9457 74.8761 19.0916V19.0858ZM88.2671 16.3894V15.6057L82.0222 16.2014C78.8515 16.547 77.7743 17.3581 77.7743 19.0237C77.7743 20.6227 79.2518 21.5322 81.8689 21.5322C85.6514 21.5379 88.2671 19.5311 88.2671 16.3951V16.3894ZM93.07 29.4986V27.061C93.5091 27.12 93.9513 27.1514 94.3942 27.155C96.8268 27.155 98.3043 26.0576 99.1048 24.019L99.4426 23.1717L91.8395 7.58285H94.9789L100.306 19.0916C100.506 19.57 100.67 20.0629 100.798 20.5663H100.828C100.951 20.1904 101.112 19.6887 101.32 19.0916L106.305 7.58285H109.322L101.81 24.2677C100.06 28.2176 97.8416 29.6302 94.6667 29.6302C94.132 29.6324 93.598 29.5904 93.07 29.5044V29.4986Z" fill="black"/>
  <path d="M122.899 10.168H119.673L117.168 4.60153L114.663 10.168H111.437L115.554 1.01733H118.78L122.899 10.168Z" fill="#BE1549"/>
</svg>
