<svg width="708" height="434" viewBox="0 0 708 434" xmlns="http://www.w3.org/2000/svg">
    <g fill-rule="nonzero" fill="none">
        <path d="M434.34 348.656a164.286 164.286 0 0 0 33.133.893c.848-.005 1.532-.777 1.527-1.723-.005-.947-.697-1.71-1.546-1.704a196.838 196.838 0 0 0-33.095-.75c-.764.07-1.354.778-1.359 1.633-.005.855.577 1.571 1.34 1.65z" fill="#191919"/>
        <path d="M548.772 182c-7.142.108-30.968.56-35.712.705a2.216 2.216 0 0 0-2.154 2.132c-.955 28.885.293 56.97.222 85.978-.06 26.146-1.053 33.171-1.128 38.367-.01.96.75 1.755 1.718 1.793a66.35 66.35 0 0 0 3.654 0c15.296-.395 20.634.302 29.22-.138a1.58 1.58 0 0 0 1.512-.075c.458-.28.739-.774.744-1.308.15-25.255 1.823-106.925 4.135-125.009a2.16 2.16 0 0 0-.543-1.722 2.202 2.202 0 0 0-1.668-.723zM621.495 172.375a2.145 2.145 0 0 0-1.526-.745 152.761 152.761 0 0 0-35.561.92 2.208 2.208 0 0 0-1.811 2.236c.609 24.54-1.907 49.598-2.438 73.911-.345 15.883 0 55.606-.134 59.56-.104 3.257 7.14 2.12 12.536 2.277 3.143.093 18.395.227 22.87.26a1.542 1.542 0 0 0 1.561-.013c.48-.287.768-.812.755-1.373-.516-20.325 1.68-41.597 2.026-62.686.237-14.609.13-29.18.527-43.747.794-29.158 2.568-28.998 1.195-30.6zM693.705 147.838a2.185 2.185 0 0 0-2.144-2.115c-12.525-.235-26.79-1.591-39.21.157a2.211 2.211 0 0 0-1.89 1.965c-3.574 35.022-2.498 69.746-1.449 105.019 1.811 60.72.194 56.446 1.386 57.627 1.609 1.595.145-1.184 38 .075v.063a1.516 1.516 0 0 0 1.546-1.494c.385.011 5.292-109.774 3.76-161.297z" fill="#37A1FF"/>
        <path d="M689.998 72.226c0-.586-.233-1.148-.645-1.562a2.193 2.193 0 0 0-1.557-.645c-6.394-.091-12.788.15-19.157.72a1.49 1.49 0 0 0-1.487 1.494 1.49 1.49 0 0 0 1.487 1.494c5.35.485 10.162.676 14.163.72-16.543 14.067-79.573 67.68-84.3 71.736l-30.534-30.567a2.128 2.128 0 0 0-2.786-.198l-50.696 38.984a1.498 1.498 0 0 0-.188 2c.46.617 1.311.78 1.965.379 0 0 47.532-35.019 49.987-36.845l30.58 30.806a2.202 2.202 0 0 0 2.993.116l85.802-74.682c.063 4.88.323 10.456.624 15.31a1.55 1.55 0 0 0 1.547 1.554 1.55 1.55 0 0 0 1.547-1.554c.38-6.101.688-13.163.655-19.26zM501.518 310.628h204.964c.838 0 1.518-.729 1.518-1.628 0-.9-.68-1.628-1.518-1.628H501.518c-.838 0-1.518.729-1.518 1.628 0 .9.68 1.628 1.518 1.628zM362.016 128.248a21.551 21.551 0 0 0-12.553-3.595c-.3-7.37-.353-8.008-.57-10.92a19.347 19.347 0 0 1 6.122-.683 1.5 1.5 0 0 0 1.587-1.233 1.493 1.493 0 0 0-1.072-1.694 24.128 24.128 0 0 0-6.874.261c-.124-1.628-.26-3.26-.35-4.89 0-.825-.672-1.494-1.502-1.494s-1.503.669-1.503 1.493c-.097 1.867-.195 3.734-.274 5.623-10.851 2.792-12.188 8.777-7.38 13.69a13.377 13.377 0 0 0 7.576 3.733c.24 4.48.612 10.782.882 15.815-2.854.123-5.72.03-8.398-.12a1.561 1.561 0 0 0-1.666 1.447 1.558 1.558 0 0 0 1.455 1.656c2.802.22 5.796.474 8.793.507.075 1.527.128 2.79.147 3.603 0 .858.7 1.553 1.562 1.553.863 0 1.563-.695 1.563-1.553.022-1.236.068-2.464.105-3.696 17.008-1.165 20.01-13.31 12.35-19.503zm-21.29-6.462c-1.968-1.938-2.287-3.256.662-5.13a19.665 19.665 0 0 1 3.55-1.721c0 .437-.129 3.685.082 9.068a8.834 8.834 0 0 1-4.294-2.217zm9.045 22.254c.15-5.492.075-9.27-.135-14.933 3.388-.1 6.73.795 9.608 2.572 5.004 3.961 2.348 10.856-9.473 12.361zM293.329 64.666a11.929 11.929 0 0 0-7.182-2.31c-.139-3.235-.084-2.821-.336-5.351a9.14 9.14 0 0 1 2.746-.344 1.468 1.468 0 0 0 1.564-1.23 1.494 1.494 0 0 0-1.063-1.7 12.764 12.764 0 0 0-3.584 0c-.08-.746-.168-1.492-.234-2.238 0-.825-.654-1.493-1.462-1.493-.808 0-1.463.668-1.463 1.493-.083.955-.163 1.91-.241 2.862-9.255 2.407-6.841 10.184-.044 11.852.168 3.956.124 4.034.512 8.262a46.9 46.9 0 0 1-4.106-.022c-.83-.043-1.54.6-1.595 1.446-.056.845.563 1.58 1.39 1.651 1.463.135 3.031.291 4.6.374.044.507.095 1.018.131 1.53 0 .857.681 1.552 1.522 1.552.84 0 1.52-.695 1.52-1.552l.088-1.553c9.807-.765 12.564-8.773 7.237-13.23zm-12.557-3.859c-.932-.925-.676-1.037-.497-1.265.445-.479.981-.86 1.576-1.12-.03 1.046 0 2.09 0 3.132a3.899 3.899 0 0 1-1.079-.747zm9.288 11.826a10.634 10.634 0 0 1-3.77 1.433c.124-2.966.135-3.5.03-7.27a7.689 7.689 0 0 1 4.31 1.285c1.872 1.526 1.247 3.377-.57 4.552zM418.984 26.804a14.624 14.624 0 0 0-8.579-2.591c-.212-5.025-.189-4.335-.404-6.597a11.365 11.365 0 0 1 3.574-.414 1.51 1.51 0 0 0 1.618-1.232 1.493 1.493 0 0 0-1.1-1.7 17.092 17.092 0 0 0-4.403.072c-.098-.948-.2-1.893-.276-2.849 0-.824-.677-1.493-1.513-1.493-.835 0-1.513.669-1.513 1.493-.087 1.165-.177 2.322-.26 3.484-11.264 2.86-7.565 11.438 0 13.1.208 4.853.17 4.876.6 9.908a59.729 59.729 0 0 1-5.18-.026 1.566 1.566 0 0 0-1.65 1.446 1.56 1.56 0 0 0 1.437 1.653c1.812.153 3.733.332 5.674.4.049.664.11 1.324.151 1.989 0 .858.705 1.553 1.573 1.553.87 0 1.574-.695 1.574-1.553.038-.68.068-1.355.102-2.031 12.07-.903 14.32-9.968 8.575-14.612zm-14.869-4.435c-1.27-1.229-.945-1.613-.234-2.192a8.849 8.849 0 0 1 2.057-1.213c-.045 1.657-.022 2.538.03 4.52a4.99 4.99 0 0 1-1.864-1.115h.011zm6.476 15.284c.124-3.517.132-4.644 0-8.998a10.147 10.147 0 0 1 5.601 1.568c3.034 2.401 1.214 6.269-5.613 7.43h.012z" fill="#191919"/>
        <path d="M376.517 96.073c-11.656-7.058-31.277-7.469-41.747-3.768-14.85 5.361-25.005 19.127-25.729 34.88-.723 15.753 8.127 30.39 22.423 37.086a61.313 61.313 0 0 0 37.925 1.363c14.02-5.086 23.89-17.731 25.408-32.549 1.519-14.817-5.583-29.196-18.28-37.012zM333.33 160.3c-12.831-5.947-20.8-19.04-20.177-33.153.622-14.113 9.713-26.455 23.018-31.253 13.306-4.797 28.195-1.102 37.703 9.359a34.822 34.822 0 0 1 5.686 38.378c-8.169 17.338-28.857 24.792-46.23 16.658v.011zM429.574 4.116a44.396 44.396 0 0 0-30.195-2.594c-10.585 3.771-17.83 13.5-18.35 24.64-.518 11.139 5.791 21.488 15.98 26.211a46.587 46.587 0 0 0 27.748.967c10.032-3.585 17.084-12.578 18.114-23.101 1.03-10.523-4.147-20.693-13.297-26.123zm-30.7 44.303c-8.7-4-14.103-12.814-13.679-22.314.425-9.5 6.594-17.804 15.617-21.026 9.024-3.222 19.117-.723 25.553 6.327a23.297 23.297 0 0 1 3.811 25.837c-5.535 11.651-19.542 16.657-31.302 11.187v-.01zM306.419 57.402l.063-.023a24.004 24.004 0 0 0-12.257-13.787 45.158 45.158 0 0 0-26.14-1.217 24.373 24.373 0 0 0-15.995 20.84 24.387 24.387 0 0 0 12.2 23.272 43.558 43.558 0 0 0 28.019 2.132 24.115 24.115 0 0 0 13.546-12.666 24.167 24.167 0 0 0 .564-18.551zm-31.024 26.476c-10.095-4.754-14.46-16.782-9.767-26.917a20.6 20.6 0 0 1 19.462-11.853 20.606 20.606 0 0 1 18.473 13.346l.063-.022a20.724 20.724 0 0 1-5.751 22.029 20.652 20.652 0 0 1-22.48 3.417zM301.487 359.43c-28.735-1.412-47.191-.176-83.557 1.205a79.654 79.654 0 0 0-1.999-25.546 1.494 1.494 0 0 0-2.924.55c.844 7.163.231 13.955 1.08 37.891a1.56 1.56 0 0 0 1.571 1.47 1.56 1.56 0 0 0 1.54-1.504c.044-3.22.373-6.45.575-9.705 26.602.686 64.246-1.31 83.632-1.246a1.557 1.557 0 0 0 .082-3.115z" fill="#191919"/>
        <path d="M408.397 339.69c-1.756 0-16.927.37-24.361.582-.12-1.59-.247-3.176-.348-4.77A1.49 1.49 0 0 0 382.21 334a1.491 1.491 0 0 0-1.512 1.47c-.142 1.626-.291 3.25-.426 4.873-19.91-.03-74.004-.308-102.338 2.277a251.136 251.136 0 0 1-33.474 1.858 1.491 1.491 0 0 0-1.457 1.386 1.488 1.488 0 0 0 1.259 1.567c11.337.655 22.709.435 34.012-.658 16.576-1.136 85.216-2.89 101.781-3.317a202.894 202.894 0 0 0 .748 25.019 1.55 1.55 0 0 0 1.575 1.525 1.55 1.55 0 0 0 1.535-1.566c.115-2.734.86-13.893.332-25.037 8.13.453 16.285.243 24.38-.628a1.548 1.548 0 0 0 1.37-1.649 1.551 1.551 0 0 0-1.598-1.43zM457.276 384.897A22.84 22.84 0 0 0 439.142 376l-208.547 5.52a2.136 2.136 0 0 0-1.892 1.086 2.145 2.145 0 0 0 .045 2.186 2.136 2.136 0 0 0 1.937 1.006l124.546-2.059a145.763 145.763 0 0 0-.642 26.128c-22.75.411-46.62 1.267-61.797 3.053a1.494 1.494 0 0 0 .31 2.963c10.197-.941 31.799-.49 42.72-.863l19.002-.695c0 .321.03.613.049.938 0 .859.695 1.555 1.551 1.555.857 0 1.552-.696 1.552-1.555 0-.374.037-.702.056-1.05l44.26-1.622a1.553 1.553 0 0 0 1.539-1.567 1.553 1.553 0 0 0-1.565-1.542c-10.965 0-27.018.052-43.98.325.399-6.808.581-9.85.298-26.12l80.782-1.338c5.03.035 9.764 2.39 12.834 6.382a25.854 25.854 0 0 1 4.408 15.13 18.152 18.152 0 0 1-5.043 14.115 24.758 24.758 0 0 1-14.131 6.267c-2.13.045-164.01 4.024-188.459 4.69.232-4.53.597-9.612.4-26.925 17.258.315 34.52-.399 51.693-2.137a1.553 1.553 0 0 0 1.443-1.603 1.553 1.553 0 0 0-1.547-1.502c-34.314.515-29.066.747-51.634 2.242-.09-3.102-.254-6.181-.299-9.279a1.495 1.495 0 1 0-2.984-.138 216.363 216.363 0 0 0-.346 39.446l-17.507.478c-.8.016-1.53.459-1.916 1.16a2.246 2.246 0 0 0 .045 2.242 2.239 2.239 0 0 0 1.96 1.083l209.516-3.427a31.98 31.98 0 0 0 18.19-8.057 24.17 24.17 0 0 0 6.945-18.815 31.847 31.847 0 0 0-5.658-18.804zM27.485 423.375c15.968.729 46.248.931 72.042 0 .825-.037 1.473-.655 1.473-1.405s-.648-1.369-1.473-1.406c-21.137-.725-52.282-.816-72.042.112-.82 0-1.485.604-1.485 1.35 0 .745.665 1.35 1.485 1.35zM470.5 417.63h208.96c.855 0 1.544-1.2 1.54-2.132-.004-.932-.7-1.132-1.556-1.128H470.49c-.819 0-1.489 1.256-1.489 2.136 0 .88.681 1.128 1.5 1.124zM110.198 196.665c93.953-65.622 87.403-61.459 88.692-61.164.524.122.974.456 1.24.923 26.711 47.208 13.834 106.925-29.962 138.946-43.796 32.02-104.641 26.203-141.57-13.534-36.928-39.738-38.245-100.812-3.065-142.104.339-.392.82-.632 1.338-.664 1.267-.071-4.147-4.716 83.327 77.597zM27.17 123.713C1.718 155.004-3.105 198.268 14.832 234.39c17.936 36.123 55.327 58.449 95.654 57.115 76.504-2.614 122.881-84.763 87.32-151.363l-86.917 59.696a1.607 1.607 0 0 1-1.946-.138c0 .377 1.386 1.337-81.773-75.988z" fill="#191919"/>
        <path d="M105.397 184.522a1.512 1.512 0 0 0 1.977.2c.616-.438.805-1.26.442-1.919.375 0 .983 2.098-42.726-97.506a2.21 2.21 0 0 0-2.663-1.2 64.21 64.21 0 0 0-18.627 9.1 52.167 52.167 0 0 0-14.52 14.989c-.483.859-.33 1.932.375 2.624 76.89 74.785 75.742 73.34 75.742 73.712zm-43.51-95.661c-11.158 3.674-20.883 10.695-27.824 20.09 3.784 3.745 59.001 58.853 67.426 67.344-5.008-10.938-37.34-82.348-39.621-87.434h.019zM70.823 60.373a1.452 1.452 0 0 0-.744 1.782c.372 0-.743-2.438 35.585 110.345a2.2 2.2 0 0 0 4.28-.59l5.053-114.493a1.864 1.864 0 0 0-1.114-1.808 45.73 45.73 0 0 0-22.138-2.084A61.296 61.296 0 0 0 70.85 60.3l-.026.074zm40.355-1.752a51.472 51.472 0 0 0-37.803 3.877c1.955 5.711 29.235 86.77 32.724 97.33.627-13.442 4.804-96.13 5.079-101.214v.007z" fill="#191919"/>
        <path d="M214.867 110.508a73.392 73.392 0 0 0-31.747-38.874 95.645 95.645 0 0 0-48.692-12.627 2.183 2.183 0 0 0-2.047 1.838s-19.35 124.272-19.35 124.362c-.125.608.14 1.23.662 1.561a1.484 1.484 0 0 0 1.69-.067c.371 0 98.397-73.456 98.77-73.736a2.152 2.152 0 0 0 .714-2.457z" fill="#37A1FF"/>
        <path d="M581.091 396.757a8.72 8.72 0 0 0 3.908-7.392h-.083a8.785 8.785 0 0 0-2.462-6.212 8.623 8.623 0 0 0-6.094-2.635c-6.406-.113-46.126-.5-52.532-.518-3.826-.001-7.258 2.375-8.634 5.978a9.394 9.394 0 0 0 2.426 10.28c-3.146 2.436-4.404 6.624-3.127 10.413 1.277 3.788 4.804 6.334 8.769 6.329 5.27 0 44.991-.378 52.529-.488 4.802-.05 8.657-4.015 8.616-8.862h-.068a8.56 8.56 0 0 0-3.248-6.893zm-61.718-9.263a4.87 4.87 0 0 1 4.473-3.025c55.6-.23 53.896-1.43 56.395.994a5.578 5.578 0 0 1 1.708 3.902h-.067a5.481 5.481 0 0 1-3.443 5.021c-1.873.757-1.498.057-54.593-.113a4.858 4.858 0 0 1-4.03-2.184 4.954 4.954 0 0 1-.458-4.595h.015zm61.943 16.175a5.5 5.5 0 0 1-1.645 3.85 5.398 5.398 0 0 1-3.862 1.545c-55.357-.67-52.757-.181-54.386-.866-2.109-.92-3.293-3.204-2.841-5.477.451-2.274 2.416-3.92 4.714-3.949 6.402 0 46.126-.408 52.528-.518 3.015-.05 5.502 2.372 5.56 5.415h-.068zM175.999 395.153h-.069a8.549 8.549 0 0 0-2.454-6.1 8.665 8.665 0 0 0-6.078-2.587c-6.39-.097-46.018-.479-52.41-.505-3.93-.018-7.44 2.442-8.741 6.126a9.12 9.12 0 0 0 2.971 10.208 6.199 6.199 0 0 0-1.749 1.626c-1.28-3.265-4.426-5.433-7.953-5.48-2.396-.036-5.288-.088-8.491-.144a8.38 8.38 0 0 0 3.229-6.738h-.068a8.388 8.388 0 0 0-2.317-5.94c4.067-.051 7.165.335 10.091-2.65a8.571 8.571 0 0 0 2.463-6.1h-.063a8.361 8.361 0 0 0-3.248-6.76 8.524 8.524 0 0 0 3.928-7.276h-.064a8.508 8.508 0 0 0-2.425-6.07c-1.932-1.993-1.727-.207.486-2.468a8.56 8.56 0 0 0 2.466-6.1h-.067a8.549 8.549 0 0 0-2.456-6.1 8.665 8.665 0 0 0-6.08-2.586c-6.387-.097-46.019-.483-52.406-.509-3.739.008-7.106 2.249-8.536 5.68a9.154 9.154 0 0 0 1.996 10.012c1.069 1.065 1.076.104-.471 1.633a9.152 9.152 0 0 0 0 12.994c.516.508.486-.067-.624 1.035a9.061 9.061 0 0 0-.811 12.002 14.56 14.56 0 0 0-6.354.687A9.202 9.202 0 0 0 24 391.535a9.202 9.202 0 0 0 5.694 8.492c2.295.943 3.536.694 10.779.668a9.146 9.146 0 0 0-1.884 9.973c1.444 3.4 4.793 5.611 8.507 5.62 5.258-.027 44.89-.372 52.409-.48a8.591 8.591 0 0 0 6.353-2.866 8.601 8.601 0 0 0 2.12 3.341c.515.509.485-.066-.625 1.032a9.154 9.154 0 0 0-1.987 10.01c1.432 3.429 4.798 5.667 8.535 5.675 5.259-.026 44.886-.371 52.41-.479a8.707 8.707 0 0 0 6.112-2.582 8.59 8.59 0 0 0 2.483-6.12h-.052a8.508 8.508 0 0 0-2.425-6.07c-1.211-1.25-1.122-.044.642-1.855a8.553 8.553 0 0 0 2.467-6.096h-.067a8.521 8.521 0 0 0-3.738-7.172 8.456 8.456 0 0 0 4.266-7.473zM44.49 343.373c53.87-.219 52.409-.958 54.472-.148a5.44 5.44 0 0 1 3.49 4.956h-.063c-.045 2.97-2.504 5.342-5.494 5.3-55.014-.656-52.607-.166-54.263-.85a4.819 4.819 0 0 1-2.844-5.375 4.85 4.85 0 0 1 4.702-3.883zm-2.314 15.01c1.97-.818.662-.057 54.26-.877a5.473 5.473 0 0 1 3.886 1.513 5.4 5.4 0 0 1 1.67 3.8h-.066a5.395 5.395 0 0 1-3.435 4.933c-2.003.787-.512.156-54.465-.115a4.85 4.85 0 0 1-4.687-3.886 4.819 4.819 0 0 1 2.837-5.369zm1.233 13.664c53.886-.215 52.402-.958 54.476-.148a5.44 5.44 0 0 1 3.491 4.956h-.067a5.358 5.358 0 0 1-1.64 3.78 5.431 5.431 0 0 1-3.85 1.52c-55.014-.656-52.608-.166-54.263-.853a4.819 4.819 0 0 1-2.837-5.371 4.85 4.85 0 0 1 4.69-3.884zm-10.165 24.316c-2.538-.185-4.503-2.285-4.503-4.813 0-2.528 1.965-4.628 4.503-4.813 53.923-.223 52.405-.954 54.472-.152a5.444 5.444 0 0 1 3.495 4.956h-.068a5.362 5.362 0 0 1-1.641 3.78 5.435 5.435 0 0 1-3.853 1.52c-7.52-.088-47.147-.452-52.405-.478zm71.757 10.747c-.045 2.97-2.504 5.341-5.493 5.298-55.392-.661-52.6-.164-54.263-.85a4.825 4.825 0 0 1-2.964-4.444 4.825 4.825 0 0 1 2.964-4.444c1.94-.798.239-.055 54.259-.872a5.473 5.473 0 0 1 3.886 1.512 5.4 5.4 0 0 1 1.671 3.8h-.06zm66.866 16.706h-.067a5.392 5.392 0 0 1-3.435 4.933c-1.921.743 0 .16-54.465-.111-2.55-.172-4.529-2.277-4.529-4.815 0-2.538 1.98-4.642 4.53-4.815 53.817-.211 52.397-.958 54.475-.148a5.44 5.44 0 0 1 3.498 4.967l-.007-.011zm.617-14.037h-.064c-.047 2.969-2.505 5.34-5.494 5.298-54.94-.654-52.581-.156-54.263-.85a4.825 4.825 0 0 1-2.963-4.444 4.825 4.825 0 0 1 2.963-4.444c1.955-.809.348-.052 54.26-.876a5.465 5.465 0 0 1 3.905 1.516 5.392 5.392 0 0 1 1.663 3.823l-.007-.023zm.396-14.637a5.362 5.362 0 0 1-1.642 3.78 5.435 5.435 0 0 1-3.852 1.52c-54.985-.656-52.596-.166-54.26-.85a4.825 4.825 0 0 1-2.963-4.443 4.825 4.825 0 0 1 2.964-4.444c1.988-.82 1.15-.07 54.255-.876 3.012-.058 5.502 2.32 5.561 5.313h-.063zM179.502 421c4.659-.36 54.553-.537 54.926-.537.855.014 1.558-.704 1.572-1.604.013-.9-.67-1.642-1.524-1.656-8.44-.29-16.563-1.39-33.12-1.175-7.414.065-14.814.688-22.144 1.865-.758.15-1.28.886-1.205 1.693.076.808.724 1.421 1.495 1.414z" fill="#191919"/>
        <path d="M669.39 361.474c-.668-.674 3.997-.432-79.526-.432-11.932.205-27.594 2.451-39.97.744-.471-.067-.949.07-1.311.379a1.653 1.653 0 0 0-.583 1.232v10.477a1.49 1.49 0 0 0 1.492 1.488 1.49 1.49 0 0 0 1.491-1.488l.283-8.554c4.128.525 8.286.784 12.447.777l-.477 8.257a2.208 2.208 0 0 0 2.044 2.32c6.48.458 10.269.183 15.101.317a2.005 2.005 0 0 0 1.532-.628c.396-.42.59-.99.534-1.563-.522-4.415-.507-4.091-.842-8.789 7.968-.063 17.488-.16 27.25-.267-.104 2.406-.313 6.98-.347 8.093-4.101 0-13.867.42-19.968.461a1.49 1.49 0 0 0-1.506 1.473 1.49 1.49 0 0 0 1.476 1.503c6.231.156 12.418.565 19.898.744-.045 2.134-.105 4.86-.164 7.81-10.024.242-10.36.528-16.456.766a1.49 1.49 0 0 0-1.465 1.514 1.49 1.49 0 0 0 1.517 1.462c5.456 0 10.657.416 16.318.472-.071 3.437-.146 6.915-.209 9.983-5.22.12-10.44.372-15.702.476a1.49 1.49 0 0 0-1.492 1.488 1.49 1.49 0 0 0 1.492 1.488c5.22.085 10.407.372 15.609.584a396.807 396.807 0 0 1-.127 5.01 1.55 1.55 0 0 0 1.462 1.632 1.55 1.55 0 0 0 1.637-1.458c.13-1.688.302-3.377.47-5.062 31.165.703 41.528-.044 53.14-.32-.023 2.232-.09 4.43-.082 6.662.04.826.723 1.475 1.553 1.475.829 0 1.512-.649 1.553-1.475.037-4.768.264-9.5.514-14.223 1.697-32.321 2.76-33.456 1.413-34.828zm-3.599 3.548c-.093 3.117-.242 6.219-.373 9.32-9.479-.07-40.1-.393-52.752-.472-.075-2.871-.22-5.08-.451-8.149 24.096-.271 48.632-.599 53.576-.699zm-54.128 34.962c.675-7.022.425-5.46.638-9.908 26.389.096 27.22-.417 40.32-1.116a1.55 1.55 0 0 0 1.491-1.607 1.55 1.55 0 0 0-1.61-1.488c-3.73.082-31.196-.085-40.022-.078.052-1.547.186-6.665.19-7.676 33.81.32 38.198-.265 52.614-.592-.992 21.785-.746 19.188-.824 23.231-7.562-.055-43.426-.695-52.797-.773v.007z" fill="#191919"/>
        <path d="M480.733 327.73a25.505 25.505 0 0 0-18.895-8.317s-24.254.623-57.836 1.555c9.373-8.656 24.545-23.825 30.716-35.059 11.896-2.309 19.926-14.516 19.403-26.537-.44-9.914-8.085-19.394-18.362-18.734a157.622 157.622 0 0 1-10.634-14.446c4.478-10.491 10.9-24.765 5.791-35.059-1.694-4.59-6.781-6.948-11.38-5.274-7.124 2.238-15.896 12.346-19.266 18.433-.98 1.775-1.832 3.595-2.638 5.456a74.546 74.546 0 0 0-9.548-1.052 47.55 47.55 0 0 0-5.97-21.345c-4.373-6.65-11.881-7.332-16.519-.746-4.534 6.43-7.72 18.198-10.097 25.903a1.552 1.552 0 0 1-3.045-.604 31.904 31.904 0 0 1 3.198-13.561c-34.011-7.72-72.467 13.483-86.545 45.241a9.388 9.388 0 0 1-9.004 1.436c3.769-2.346 5.97-5.967 3.317-9.447-5.123-6.62-13.6-.657-11.358 6.762a17.027 17.027 0 0 1-4.104-3.771 1.534 1.534 0 0 0-2.403 1.906 12.482 12.482 0 0 0 9.526 6.34 11.22 11.22 0 0 0 11.94 2.115c-10.041 29.402 4.086 60.795 34.62 75.11a34413.205 34413.205 0 0 0-96.075 3.177 2.194 2.194 0 1 0 .115 4.382l256.404-5.643a18.515 18.515 0 0 1 13.668 6.042c7.672 9.015 7.896 35.735-12.769 36.335l-13.343.41c-1.537-9.697-5.537-18.532-14.15-23.232a29.636 29.636 0 0 0-8.66-.343c-22.783.746-26.392 1.097-26.54 3.439a1.865 1.865 0 0 0 1.19 1.839c8.522 3.323 11.63 10.316 12.936 19.394-16.276.519-211.254 7.21-211.254 7.21A2.292 2.292 0 0 0 201 379.4a2.292 2.292 0 0 0 2.299 2.221s195.41-4.99 211.788-5.449c1.235 14.785 1.76 30.297 1.75 45.13a2.212 2.212 0 0 0 4.164 1.029c1.306-2.477 8.724-17.157 11.194-22.031a116.704 116.704 0 0 1 13.47 22.55 2.13 2.13 0 0 0 4.023-.952c.675-33.474.854-42.466.641-46.737l12.803-.373a24.258 24.258 0 0 0 18.302-8.746c7.511-9.623 7.556-28.607-.702-38.312zm-60.28-76.959a17.914 17.914 0 0 1 12.314-5.169v-.067c12.377.28 17.97 4.032 17.235 17.227-.593 13.215-5.873 16.683-17.235 16.676a16.814 16.814 0 0 1-15.856-10.17 16.8 16.8 0 0 1 3.542-18.497zm-163.552-8.395c-2.22-3.234.623-7.396 3.194-4.2 1.074 1.317-1.847 3.469-3.194 4.2zm57.87 81.21a37.568 37.568 0 0 0 2.954-10.543 86.675 86.675 0 0 0 39.411-2.674c.522 2.983 1.97 11.409 2.056 11.879-14.321.417-27.414.813-44.422 1.339zm87.07-21.568a36.908 36.908 0 0 1-5.518.593 91.3 91.3 0 0 1-12.396 18.924l-5.97.168c.478-.485.963-.984 1.474-1.514a167.274 167.274 0 0 0 13.843-20.487c1.015-1.929 2.593-.549 8.21-.769a1.553 1.553 0 1 1 .357 3.085z" fill="#37A1FF"/>
        <path d="M312.903 213.939c5.268-1.569 22.265-4.88 27.705-5.706.84-.088 1.457-.855 1.387-1.725-.07-.869-.801-1.52-1.644-1.463a59.632 59.632 0 0 0-28.505 6.03c-.699.345-1.024 1.187-.748 1.934.276.748 1.06 1.153 1.805.93zM394.226 234.002c2.492-.1 4.628 3.18 4.767 7.316.139 4.138-1.737 7.579-4.215 7.68-2.478.1-4.628-3.18-4.77-7.316-.143-4.138 1.737-7.579 4.218-7.68zM421.19 232.002c2.476-.088 4.626 3.2 4.799 7.331.173 4.131-1.703 7.577-4.179 7.665-2.476.088-4.626-3.2-4.799-7.331-.173-4.131 1.7-7.574 4.179-7.665zM366.972 214.91a91.899 91.899 0 0 1 6.632-15.804c.121-.16.828-1.002 1.021-.957 1.483.333 2.819 3.48 3.322 4.89a1.58 1.58 0 0 0 1.893.961 1.542 1.542 0 0 0 1.133-1.77c-.707-3.488-2.228-7.543-5.844-8.162-6.855-1.184-9.836 13.463-11.1 20.16a1.484 1.484 0 0 0 1.136 1.732c.792.184 1.591-.28 1.807-1.05zM411.827 212.184a58.026 58.026 0 0 1 9.794-12.398c1.242-.86 1.77-1.06 2.593.436l.71 1.634a1.556 1.556 0 1 0 3.038-.684 7.797 7.797 0 0 0-2.581-5.218c-5.612-4.43-14.092 7.593-16.303 15.065a1.505 1.505 0 0 0 .837 1.863c.721.305 1.555.001 1.912-.698zM428.038 260.21a33.162 33.162 0 0 0 .137 4.99c.336 3.012.56 4.826 1.972 4.8 1.411-.027 1.572-1.807 1.804-4.893.18-2.447-.044-9.251-2.247-9.105-1.224.072-1.421 1.517-1.666 4.208zM441.207 259.76a22.735 22.735 0 0 0-.15 4.658c.214 2.807.404 4.533 1.777 4.581 1.26.04 1.584-1.206 2.01-4.493.154-1.475.194-2.962.12-4.444-.221-2.678-.516-3.958-1.618-4.058-1.269-.121-1.881 2.398-2.14 3.755z" fill="#191919"/>
    </g>
</svg>
