<svg width="32" height="33" viewBox="0 0 32 33" xmlns="http://www.w3.org/2000/svg">
    <path d="M9.733 27.747a2.314 2.314 0 0 1-1.7-.7 2.314 2.314 0 0 1-.7-1.7V8.413H7a.968.968 0 0 1-1-1 .968.968 0 0 1 1-1h5c0-.333.116-.61.35-.833a1.19 1.19 0 0 1 .85-.333h5.6c.333 0 .617.11.85.333.234.222.35.5.35.833h5c.289 0 .528.095.717.284a.97.97 0 0 1 .283.716.97.97 0 0 1-.283.716.972.972 0 0 1-.717.284h-.333v16.934c0 .666-.234 1.233-.7 1.7-.467.466-1.034.7-1.7.7H9.733zm-.4-19.334v16.934c0 .11.04.205.118.284a.385.385 0 0 0 .282.116h12.534a.39.39 0 0 0 .284-.116.39.39 0 0 0 .116-.284V8.413H9.333zm3.2 13.667c0 .289.095.528.284.717a.97.97 0 0 0 .716.283.975.975 0 0 0 .718-.283.975.975 0 0 0 .282-.717v-10a.975.975 0 0 0-.282-.717.975.975 0 0 0-.718-.283.97.97 0 0 0-.716.283.972.972 0 0 0-.284.717v10zm4.934 0c0 .289.094.528.282.717.19.189.429.283.718.283a.975.975 0 0 0 .717-.283.975.975 0 0 0 .283-.717v-10a.975.975 0 0 0-.283-.717.975.975 0 0 0-.717-.283.975.975 0 0 0-.718.283.975.975 0 0 0-.282.717v10zM9.333 8.413v16.934c0 .11.04.205.118.284a.385.385 0 0 0 .282.116h-.4V8.413z" fill="#8154F2" fill-rule="nonzero"/>
</svg>
