<svg width="28" height="28" viewBox="0 0 28 28" xmlns="http://www.w3.org/2000/svg" xmlns:xlink="http://www.w3.org/1999/xlink">
    <defs>
        <path d="M2.482 9.437h3.921v1.854c-.007.236.12.464.354.632.233.168.553.263.887.263.334 0 .654-.095.887-.263.234-.168.361-.396.354-.632V9.437h10.242l-.001 1.854c.01.309.25.59.628.742.38.153.846.153 1.225 0 .38-.152.62-.433.629-.742V9.437h3.912V26.25H2.483L2.482 9.437zM14.005 1.75c2.858 0 5.121 1.596 5.121 3.611v2.326H8.885V5.36c0-2.015 2.262-3.61 5.12-3.61zm0-1.75c-4.19 0-7.602 2.407-7.602 5.361v2.326H1.246a1.473 1.473 0 0 0-.925.284c-.207.161-.321.37-.321.587v18.563c0 .234.13.458.364.622.233.165.551.258.882.257h25.518c.329-.001.644-.094.876-.26.232-.164.362-.386.36-.619V8.558c-.001-.23-.132-.451-.363-.615a1.538 1.538 0 0 0-.873-.256h-5.157V5.36C21.607 2.407 18.195 0 14.005 0z" id="5a5jtox55a"/>
    </defs>
    <g fill="none" fill-rule="evenodd">
        <mask id="103dodi6cb" fill="#fff">
            <use xlink:href="#5a5jtox55a"/>
        </mask>
        <use fill="#616161" xlink:href="#5a5jtox55a"/>
        <g mask="url(#103dodi6cb)" fill="#FFF">
            <path d="M0 0h28v28H0z"/>
        </g>
    </g>
</svg>
