<svg width="28" height="29" viewBox="0 0 28 29" xmlns="http://www.w3.org/2000/svg" xmlns:xlink="http://www.w3.org/1999/xlink">
    <defs>
        <path d="M8.691 9.687a2.429 2.429 0 0 1-.426 2.037 2.4 2.4 0 0 1-1.029.771v.648a.822.822 0 0 1-.717.824.808.808 0 0 1-.9-.803v-.588a2.436 2.436 0 0 1-1.585-1.54.814.814 0 1 1 1.536-.54.825.825 0 0 0 .798.54.809.809 0 0 0 .75-1.009.695.695 0 0 0-.48-.475c-.249-.09-.54-.108-.766-.183a2.456 2.456 0 0 1-1.838-2.5 2.43 2.43 0 0 1 .495-1.262 2.436 2.436 0 0 1 1.095-.798v-.626c0-.415.304-.779.717-.824.487-.054.9.326.9.803v.615c.206.066.402.161.582.28.573.393.95 1.013 1.035 1.703a.814.814 0 1 1-1.617.2.809.809 0 0 0-1.617.037.873.873 0 0 0 .684.857c.108.033.216.054.32.076h-.002c.35.055.688.172.998.345.534.304.92.815 1.067 1.412zm9.115 7.293H6.443a.823.823 0 0 1-.825-.716.81.81 0 0 1 .804-.9h11.363c.415 0 .78.303.824.716a.808.808 0 0 1-.803.9zm.814-6.355a.809.809 0 0 1-.809.81h-5.676a.823.823 0 0 1-.825-.718.809.809 0 0 1 .804-.9h5.692a.806.806 0 0 1 .814.808zm-7.846-5.863a.821.821 0 0 1 .766-.497h6.245c.415 0 .778.303.824.716a.809.809 0 0 1-.803.901H11.53a.811.811 0 0 1-.755-1.12zm15.42 17.754a3.93 3.93 0 0 1-.982 1.795 6.183 6.183 0 0 1-4.587 1.962h-10.5a5.99 5.99 0 0 0 1.908-4.388 1.24 1.24 0 0 1 1.24-1.239h11.79c.771 0 1.36.698 1.22 1.458a9.028 9.028 0 0 1-.09.428v-.016zM6.027 26.29H5.71a4.4 4.4 0 0 1-4.075-4.387V3.75c0-1.156.938-2.093 2.094-2.093h14.786c1.156 0 2.094.937 2.094 2.093v15.28h-9.385a.809.809 0 0 0-.808.808v2.07a4.394 4.394 0 0 1-4.388 4.382zm21.203-7.239a2.818 2.818 0 0 0-.366-.02c-1.534-.01-3.068-.018-4.603-.027l-.07-15.955c-.003-.863-.055-1.835-.7-2.407C20.95.162 20.16.125 19.435.113A826.961 826.961 0 0 0 4.002.008C2.963.01 1.415-.138.67.73.03 1.473-.003 2.587 0 3.517.02 9.324.037 15.132.056 20.94c.005 1.496.034 3.082.831 4.35.71 1.127 1.95 1.84 3.236 2.187 1.287.348 2.637.37 3.97.39 3 .044 5.998.09 8.997.133 2.712.041 5.61.03 7.872-1.467 2.153-1.424 3.36-4.155 2.963-6.705-.03-.2-.077-.41-.214-.558-.124-.134-.296-.193-.48-.219z" id="zg66u8o6ya"/>
    </defs>
    <g fill="none" fill-rule="evenodd">
        <mask id="rf9rqqbn3b" fill="#fff">
            <use xlink:href="#zg66u8o6ya"/>
        </mask>
        <use fill="#616161" xlink:href="#zg66u8o6ya"/>
        <path d="M8.691 9.687a2.429 2.429 0 0 1-.426 2.037 2.4 2.4 0 0 1-1.029.771v.648a.822.822 0 0 1-.717.824.808.808 0 0 1-.9-.803v-.588a2.436 2.436 0 0 1-1.585-1.54.814.814 0 1 1 1.536-.54.825.825 0 0 0 .798.54.809.809 0 0 0 .75-1.009.695.695 0 0 0-.48-.475c-.249-.09-.54-.108-.766-.183a2.456 2.456 0 0 1-1.838-2.5 2.43 2.43 0 0 1 .495-1.262 2.436 2.436 0 0 1 1.095-.798v-.626c0-.415.304-.779.717-.824.487-.054.9.326.9.803v.615c.206.066.402.161.582.28.573.393.95 1.013 1.035 1.703a.814.814 0 1 1-1.617.2.809.809 0 0 0-1.617.037.873.873 0 0 0 .684.857c.108.033.216.054.32.076h-.002c.35.055.688.172.998.345.534.304.92.815 1.067 1.412zm9.115 7.293H6.443a.823.823 0 0 1-.825-.716.81.81 0 0 1 .804-.9h11.363c.415 0 .78.303.824.716a.808.808 0 0 1-.803.9zm.814-6.355a.809.809 0 0 1-.809.81h-5.676a.823.823 0 0 1-.825-.718.809.809 0 0 1 .804-.9h5.692a.806.806 0 0 1 .814.808zm-7.846-5.863a.821.821 0 0 1 .766-.497h6.245c.415 0 .778.303.824.716a.809.809 0 0 1-.803.901H11.53a.811.811 0 0 1-.755-1.12zm15.42 17.754a3.93 3.93 0 0 1-.982 1.795 6.183 6.183 0 0 1-4.587 1.962h-10.5a5.99 5.99 0 0 0 1.908-4.388 1.24 1.24 0 0 1 1.24-1.239h11.79c.771 0 1.36.698 1.22 1.458a9.028 9.028 0 0 1-.09.428v-.016zM6.027 26.29H5.71a4.4 4.4 0 0 1-4.075-4.387V3.75c0-1.156.938-2.093 2.094-2.093h14.786c1.156 0 2.094.937 2.094 2.093v15.28h-9.385a.809.809 0 0 0-.808.808v2.07a4.394 4.394 0 0 1-4.388 4.382zm21.203-7.239a2.818 2.818 0 0 0-.366-.02c-1.534-.01-3.068-.018-4.603-.027l-.07-15.955c-.003-.863-.055-1.835-.7-2.407C20.95.162 20.16.125 19.435.113A826.961 826.961 0 0 0 4.002.008C2.963.01 1.415-.138.67.73.03 1.473-.003 2.587 0 3.517.02 9.324.037 15.132.056 20.94c.005 1.496.034 3.082.831 4.35.71 1.127 1.95 1.84 3.236 2.187 1.287.348 2.637.37 3.97.39 3 .044 5.998.09 8.997.133 2.712.041 5.61.03 7.872-1.467 2.153-1.424 3.36-4.155 2.963-6.705-.03-.2-.077-.41-.214-.558-.124-.134-.296-.193-.48-.219z" stroke="#616161" stroke-width=".1" mask="url(#rf9rqqbn3b)"/>
        <g mask="url(#rf9rqqbn3b)" fill="#FFF">
            <path d="M0 0h28v28H0z"/>
        </g>
    </g>
</svg>
