<svg width="28" height="29" viewBox="0 0 28 29" xmlns="http://www.w3.org/2000/svg" xmlns:xlink="http://www.w3.org/1999/xlink">
    <defs>
        <path d="M2.776.451C.808 1.098.298 2.767.188 4.701a122.407 122.407 0 0 0-.185 5.59c-.013 1.265 0 2.566.462 3.741.516 1.316 1.54 2.347 2.539 3.339l8.841 8.788c.912.906 1.958 1.87 3.237 1.894.734.01 1.523-.173 2.072-.665 2.834-2.534 5.196-5.009 7.83-7.506.724-.686 1.89-1.937 2.484-2.742.593-.802.607-1.204.44-2.193-.178-1.063-.96-1.905-1.706-2.679l-8.728-9.047C16.346 2.051 15.15.84 13.61.34a5.592 5.592 0 0 0-.853-.202c-1.072-.17-2.188-.08-3.283-.072C8.908.071 8.335.053 7.76.034A46.869 46.869 0 0 0 6.212 0C5.046 0 3.888.086 2.776.451zm12.052 25.556c-.62-.137-1.105-.61-1.555-1.063-3.29-3.308-6.577-6.616-9.866-9.925-.522-.525-1.058-1.073-1.308-1.771-.202-.559-.202-1.17-.2-1.763l.024-6.645c.007-2.045.93-2.807 2.92-2.809 2.583 0 5.165-.004 7.749-.007h.126c.386.003.778.02 1.129.178.344.157.616.435.88.708l10.144 10.46c.375.387.763.796.921 1.313.357 1.177-.577 2.316-1.44 3.188l-6.637 6.71c-.7.708-1.563 1.467-2.509 1.467-.125 0-.251-.013-.378-.041zM3.419 5.835c0 1.293 1.1 2.4 2.383 2.4 1.282 0 2.382-1.107 2.382-2.4 0-1.385-1.1-2.4-2.382-2.4-1.283 0-2.383 1.108-2.383 2.4zm1.284 0c0-.555.458-1.108 1.099-1.108S6.9 5.188 6.9 5.835c0 .646-.458 1.107-1.1 1.107-.64 0-1.098-.554-1.098-1.107zm10.951 8.627-.157.16-.156-.16c-.63-.714-1.575-1.11-2.598-1.11-2.047 0-3.7 1.665-3.7 3.649 0 .953.394 1.905 1.102 2.618l4.079 4.11a1.79 1.79 0 0 0 2.547 0l4.079-4.11A3.744 3.744 0 0 0 21.951 17c0-1.984-1.653-3.65-3.699-3.65-.945 0-1.888.397-2.598 1.111zm1.496.952c.394-.397.866-.554 1.418-.554a2.066 2.066 0 0 1 1.888 2.06c0 .558-.236 1.034-.55 1.43l-4.33 4.364-4.329-4.363c-.394-.397-.551-.873-.551-1.43 0-1.11.867-1.983 1.968-1.983.552 0 1.024.239 1.416.556l1.574 1.507 1.496-1.587z" id="u8xticgp1a"/>
        <path d="M2.776.451C.808 1.098.298 2.767.188 4.701a122.407 122.407 0 0 0-.185 5.59c0 .115-.002.229-.003.343v.274c.005 1.066.077 2.14.465 3.124.516 1.316 1.54 2.347 2.539 3.339l8.841 8.788c.912.906 1.958 1.87 3.237 1.894h.13c.697-.011 1.425-.202 1.942-.665 2.834-2.534 5.196-5.009 7.83-7.506.724-.686 1.89-1.937 2.484-2.742.381-.515.523-.865.531-1.311v-.088a5.429 5.429 0 0 0-.09-.794c-.18-1.063-.96-1.905-1.707-2.679l-8.728-9.047C16.346 2.051 15.15.84 13.61.34a5.592 5.592 0 0 0-.853-.202c-1.072-.17-2.188-.08-3.283-.072C8.908.071 8.335.053 7.76.034A46.927 46.927 0 0 0 6.212.001c-1.166 0-2.324.085-3.436.45zm12.052 25.556c-.62-.137-1.105-.61-1.555-1.063-3.29-3.308-6.577-6.616-9.866-9.925-.522-.525-1.058-1.073-1.308-1.771-.202-.559-.202-1.17-.2-1.763l.024-6.645c.007-2.045.93-2.807 2.92-2.809 2.583 0 5.165-.004 7.749-.007h.126c.386.003.778.02 1.129.178.344.157.616.435.88.708l10.144 10.46c.375.387.763.796.921 1.313.357 1.177-.577 2.316-1.44 3.188l-6.637 6.71c-.7.708-1.563 1.467-2.509 1.467-.125 0-.251-.013-.378-.041zM3.419 5.835c0 1.293 1.1 2.4 2.383 2.4 1.282 0 2.382-1.107 2.382-2.4 0-1.385-1.1-2.4-2.382-2.4-1.283 0-2.383 1.108-2.383 2.4zm1.284 0c0-.555.458-1.108 1.099-1.108S6.9 5.188 6.9 5.835c0 .646-.458 1.107-1.1 1.107-.64 0-1.098-.554-1.098-1.107zm10.951 8.627-.157.16-.156-.16c-.63-.714-1.575-1.11-2.598-1.11-2.047 0-3.7 1.665-3.7 3.649 0 .953.394 1.905 1.102 2.618l4.079 4.11a1.79 1.79 0 0 0 2.547 0l4.079-4.11A3.744 3.744 0 0 0 21.951 17c0-1.984-1.653-3.65-3.699-3.65-.945 0-1.888.397-2.598 1.111zm1.496.952c.394-.397.866-.554 1.418-.554a2.066 2.066 0 0 1 1.888 2.06c0 .558-.236 1.034-.55 1.43l-4.33 4.364-4.329-4.363c-.394-.397-.551-.873-.551-1.43 0-1.11.867-1.983 1.968-1.983.552 0 1.024.239 1.416.556l1.574 1.507 1.496-1.587z" id="6s6zm00yxb"/>
        <path d="M2.776.451C.808 1.098.298 2.767.188 4.701a122.407 122.407 0 0 0-.185 5.59c-.013 1.265 0 2.566.462 3.741.516 1.316 1.54 2.347 2.539 3.339l8.841 8.788c.912.906 1.958 1.87 3.237 1.894.734.01 1.523-.173 2.072-.665 2.834-2.534 5.196-5.009 7.83-7.506.724-.686 1.89-1.937 2.484-2.742.593-.802.607-1.204.44-2.193-.178-1.063-.96-1.905-1.706-2.679l-8.728-9.047C16.346 2.051 15.15.84 13.61.34a5.592 5.592 0 0 0-.853-.202c-1.072-.17-2.188-.08-3.283-.072C8.908.071 8.335.053 7.76.034A46.869 46.869 0 0 0 6.212 0C5.046 0 3.888.086 2.776.451zm12.052 25.556c-.62-.137-1.105-.61-1.555-1.063-3.29-3.308-6.577-6.616-9.866-9.925-.522-.525-1.058-1.073-1.308-1.771-.202-.559-.202-1.17-.2-1.763l.024-6.645c.007-2.045.93-2.807 2.92-2.809 2.583 0 5.165-.004 7.749-.007h.126c.386.003.778.02 1.129.178.344.157.616.435.88.708l10.144 10.46c.375.387.763.796.921 1.313.357 1.177-.577 2.316-1.44 3.188l-6.637 6.71c-.7.708-1.563 1.467-2.509 1.467-.125 0-.251-.013-.378-.041zM3.419 5.835c0 1.293 1.1 2.4 2.383 2.4 1.282 0 2.382-1.107 2.382-2.4 0-1.385-1.1-2.4-2.382-2.4-1.283 0-2.383 1.108-2.383 2.4zm1.284 0c0-.555.458-1.108 1.099-1.108S6.9 5.188 6.9 5.835c0 .646-.458 1.107-1.1 1.107-.64 0-1.098-.554-1.098-1.107zm10.951 8.627-.157.16-.156-.16c-.63-.714-1.575-1.11-2.598-1.11-2.047 0-3.7 1.665-3.7 3.649 0 .953.394 1.905 1.102 2.618l4.079 4.11a1.79 1.79 0 0 0 2.547 0l4.079-4.11A3.744 3.744 0 0 0 21.951 17c0-1.984-1.653-3.65-3.699-3.65-.945 0-1.888.397-2.598 1.111zm1.496.952c.394-.397.866-.554 1.418-.554a2.066 2.066 0 0 1 1.888 2.06c0 .558-.236 1.034-.55 1.43l-4.33 4.364-4.329-4.363c-.394-.397-.551-.873-.551-1.43 0-1.11.867-1.983 1.968-1.983.552 0 1.024.239 1.416.556l1.574 1.507 1.496-1.587z" id="qrag4zikmc"/>
    </defs>
    <g fill="none" fill-rule="evenodd">
        <mask id="ob3tsm3w1d" fill="#fff">
            <use xlink:href="#qrag4zikmc"/>
        </mask>
        <path d="M12.758.138c.289.046.573.11.854.202 1.54.5 2.734 1.71 3.862 2.88l8.728 9.048c.747.774 1.528 1.616 1.706 2.68.167.988.154 1.389-.44 2.192-.595.804-1.76 2.056-2.484 2.743-2.635 2.496-4.995 4.97-7.83 7.507-.549.49-1.338.674-2.072.662-1.28-.022-2.325-.987-3.237-1.893l-8.841-8.788c-.998-.992-2.023-2.024-2.54-3.337-.462-1.177-.475-2.478-.46-3.742.018-1.865.08-3.73.185-5.59C.298 2.767.808 1.097 2.777.45 4.93-.256 7.255.085 9.474.067c1.096-.009 2.213-.1 3.284.07m-.041 1.887h-.125l-7.749.007c-1.99.002-2.913.764-2.92 2.81l-.024 6.644c-.002.594-.002 1.204.2 1.763.25.698.788 1.246 1.308 1.771l9.866 9.925c.449.453.935.925 1.555 1.062 1.095.243 2.096-.625 2.887-1.425l6.638-6.71c.862-.872 1.797-2.012 1.44-3.187-.158-.518-.547-.927-.922-1.315L14.728 2.91c-.265-.272-.537-.55-.882-.707-.35-.158-.742-.176-1.13-.178m5.536 11.327c2.046 0 3.7 1.666 3.7 3.65 0 .952-.394 1.905-1.102 2.618l-4.079 4.11a1.79 1.79 0 0 1-2.547 0l-4.079-4.11a3.746 3.746 0 0 1-1.1-2.618c0-1.984 1.651-3.65 3.698-3.65 1.023 0 1.968.397 2.597 1.111l.157.16.157-.16c.709-.714 1.653-1.11 2.598-1.11m.316 1.507c-.552 0-1.024.158-1.417.555l-1.497 1.587-1.574-1.508c-.392-.316-.865-.555-1.416-.555a1.957 1.957 0 0 0-1.968 1.983c0 .556.157 1.032.551 1.43l4.33 4.362 4.327-4.362c.316-.398.552-.874.552-1.43 0-1.11-.866-1.983-1.888-2.062M5.802 3.435a2.374 2.374 0 0 1 2.381 2.4c0 1.293-1.099 2.4-2.381 2.4-1.283 0-2.382-1.107-2.382-2.4 0-1.292 1.099-2.4 2.382-2.4m0 1.291c-.641 0-1.099.554-1.099 1.108s.458 1.108 1.099 1.108c.64 0 1.1-.46 1.1-1.108 0-.646-.46-1.108-1.1-1.108" stroke="#616161" stroke-width=".1" mask="url(#ob3tsm3w1d)"/>
        <g mask="url(#ob3tsm3w1d)" fill="#000">
            <path d="M0 0h28v28H0z"/>
        </g>
    </g>
</svg>
