<svg width="28" height="28" viewBox="0 0 28 28" xmlns="http://www.w3.org/2000/svg" xmlns:xlink="http://www.w3.org/1999/xlink">
    <defs>
        <path d="M15.999 0c.95 0 1.723.597 1.979 1.389l.042.151.606 1.924c.796.337 1.514.673 2.155 1.139l.27.208 2.223-.674c.852-.18 1.794.147 2.324.823l.1.14 2.022 3.367c.475.815.324 1.716-.285 2.38l-.12.122-1.717 1.54c.1.48.1.866.1 1.347 0 .385 0 .708-.051 1.068l-.05.279 1.719 1.539.118.123c.56.632.645 1.538.183 2.32l-.1.155-2.02 3.368c-.381.724-1.388 1.108-2.263.91l-.162-.044-2.223-.674c-.693.495-1.386.849-2.08 1.182l-.345.165-.505 2.213c-.19.816-.918 1.46-1.845 1.533l-.176.007h-4.042c-.856 0-1.711-.597-1.978-1.39l-.042-.15-.506-2.213c-.795-.336-1.514-.673-2.155-1.14l-.27-.207-2.223.674c-.852.18-1.793-.147-2.324-.823l-.1-.14-2.021-3.367c-.381-.724-.314-1.705.285-2.22l.119-.09 1.718-1.54c-.101-.48-.101-.865-.101-1.346 0-.385 0-.708.05-1.068l.05-.28-1.717-1.538C-.022 10.53-.152 9.56.167 8.807l.07-.147 2.122-3.368c.38-.724 1.387-1.108 2.262-.91l.163.044 2.222.674a7.535 7.535 0 0 1 2.089-1.23l.336-.117.506-2.213c.19-.816.917-1.46 1.844-1.533L11.957 0h4.042zm0 1.732h-4.042c-.173 0-.272.071-.297.151l-.006.041-.606 2.502c-.101.289-.303.577-.606.674-1.011.385-1.92.866-2.728 1.539a.818.818 0 0 1-.695.22l-.114-.027-2.728-.77c-.081 0-.161 0-.242.049l-.061.047-2.021 3.368a.172.172 0 0 0-.048.11l-.003.03 1.97 1.784c.174.165.273.4.298.646l.006.124c-.101.577-.101 1.058-.101 1.539 0 .482 0 1.059.1 1.54 0 .247-.073.495-.221.682l-.081.088-2.021 1.828c0 .08-.07.227-.035.33l.035.055 2.02 3.367c0 .083.15.095.256.096h.048l2.728-.77h.303c.203 0 .405.097.607.193.808.674 1.717 1.155 2.728 1.54.26.165.445.33.557.555l.049.118.606 2.598c.08.077.162.154.243.182l.06.01h4.042c.173 0 .272-.07.297-.151l.006-.041.606-2.501c.1-.29.303-.578.607-.674 1.01-.385 1.919-.866 2.728-1.54a.815.815 0 0 1 .695-.22l.113.028 2.728.77c.087.082.173.023.26-.056l.043-.04 2.02-3.368c.089-.084.023-.168.005-.124l-.004.028-2.021-1.828c-.202-.193-.303-.481-.303-.77a7.57 7.57 0 0 0 .1-1.3v-.538c-.003-.41-.02-.856-.1-1.241 0-.248.074-.495.223-.682l.08-.088 2.02-1.828c0-.08.07-.227.036-.33l-.035-.055-2.021-3.368c0-.082-.148-.094-.254-.096h-.05l-2.727.77c-.202.096-.606 0-.808-.193-.81-.673-1.718-1.154-2.728-1.539-.26-.165-.446-.33-.557-.556l-.05-.118-.606-2.598c-.101-.096-.202-.192-.303-.192zm-2.021 6.447c3.335 0 6.063 2.598 6.063 5.773s-2.728 5.773-6.063 5.773c-3.334 0-6.062-2.598-6.062-5.773s2.728-5.773 6.062-5.773zm0 1.732c-2.324 0-4.244 1.828-4.244 4.04 0 2.214 1.92 4.042 4.244 4.042s4.244-1.828 4.244-4.041-1.92-4.041-4.244-4.041z" id="b1wzqm5waa"/>
    </defs>
    <g fill="none" fill-rule="evenodd">
        <mask id="0fqz1gn04b" fill="#fff">
            <use xlink:href="#b1wzqm5waa"/>
        </mask>
        <use fill="#616161" xlink:href="#b1wzqm5waa"/>
        <path d="M15.999 0c.95 0 1.723.597 1.979 1.389l.042.151.606 1.924c.796.337 1.514.673 2.155 1.139l.27.208 2.223-.674c.852-.18 1.794.147 2.324.823l.1.14 2.022 3.367c.475.815.324 1.716-.285 2.38l-.12.122-1.717 1.54c.1.48.1.866.1 1.347 0 .385 0 .708-.051 1.068l-.05.279 1.719 1.539.118.123c.56.632.645 1.538.183 2.32l-.1.155-2.02 3.368c-.381.724-1.388 1.108-2.263.91l-.162-.044-2.223-.674c-.693.495-1.386.849-2.08 1.182l-.345.165-.505 2.213c-.19.816-.918 1.46-1.845 1.533l-.176.007h-4.042c-.856 0-1.711-.597-1.978-1.39l-.042-.15-.506-2.213c-.795-.336-1.514-.673-2.155-1.14l-.27-.207-2.223.674c-.852.18-1.793-.147-2.324-.823l-.1-.14-2.021-3.367c-.381-.724-.314-1.705.285-2.22l.119-.09 1.718-1.54c-.101-.48-.101-.865-.101-1.346 0-.385 0-.708.05-1.068l.05-.28-1.717-1.538C-.022 10.53-.152 9.56.167 8.807l.07-.147 2.122-3.368c.38-.724 1.387-1.108 2.262-.91l.163.044 2.222.674a7.535 7.535 0 0 1 2.089-1.23l.336-.117.506-2.213c.19-.816.917-1.46 1.844-1.533L11.957 0h4.042zm0 1.732h-4.042c-.173 0-.272.071-.297.151l-.006.041-.606 2.502c-.101.289-.303.577-.606.674-1.011.385-1.92.866-2.728 1.539a.818.818 0 0 1-.695.22l-.114-.027-2.728-.77c-.081 0-.161 0-.242.049l-.061.047-2.021 3.368a.172.172 0 0 0-.048.11l-.003.03 1.97 1.784c.174.165.273.4.298.646l.006.124c-.101.577-.101 1.058-.101 1.539 0 .482 0 1.059.1 1.54 0 .247-.073.495-.221.682l-.081.088-2.021 1.828c0 .08-.07.227-.035.33l.035.055 2.02 3.367c0 .083.15.095.256.096h.048l2.728-.77h.303c.203 0 .405.097.607.193.808.674 1.717 1.155 2.728 1.54.26.165.445.33.557.555l.049.118.606 2.598c.08.077.162.154.243.182l.06.01h4.042c.173 0 .272-.07.297-.151l.006-.041.606-2.501c.1-.29.303-.578.607-.674 1.01-.385 1.919-.866 2.728-1.54a.815.815 0 0 1 .695-.22l.113.028 2.728.77c.087.082.173.023.26-.056l.043-.04 2.02-3.368c.089-.084.023-.168.005-.124l-.004.028-2.021-1.828c-.202-.193-.303-.481-.303-.77a7.57 7.57 0 0 0 .1-1.3v-.538c-.003-.41-.02-.856-.1-1.241 0-.248.074-.495.223-.682l.08-.088 2.02-1.828c0-.08.07-.227.036-.33l-.035-.055-2.021-3.368c0-.082-.148-.094-.254-.096h-.05l-2.727.77c-.202.096-.606 0-.808-.193-.81-.673-1.718-1.154-2.728-1.539-.26-.165-.446-.33-.557-.556l-.05-.118-.606-2.598c-.101-.096-.202-.192-.303-.192zm-2.021 6.447c3.335 0 6.063 2.598 6.063 5.773s-2.728 5.773-6.063 5.773c-3.334 0-6.062-2.598-6.062-5.773s2.728-5.773 6.062-5.773zm0 1.732c-2.324 0-4.244 1.828-4.244 4.04 0 2.214 1.92 4.042 4.244 4.042s4.244-1.828 4.244-4.041-1.92-4.041-4.244-4.041z" stroke="#616161" stroke-width=".1" mask="url(#0fqz1gn04b)"/>
        <g mask="url(#0fqz1gn04b)" fill="#000">
            <path d="M0 0h28v28H0z"/>
        </g>
    </g>
</svg>
