<svg xmlns="http://www.w3.org/2000/svg" xmlns:xlink="http://www.w3.org/1999/xlink" version="1.1" width="1000" height="1000" viewBox="0 0 1000 1000" xml:space="preserve">
<desc>Created with Fabric.js 3.5.0</desc>
<defs>
</defs>
<rect x="0" y="0" width="100%" height="100%" fill="#ffffff"/>
<g transform="matrix(2.1018 0 0 2.1018 497.0772 502.9105)" id="5166" clip-path="url(#CLIPPATH_1)">
<clipPath id="CLIPPATH_1">
	<path transform="matrix(1 0 0 1 0.005 -0.004) translate(-376, -376)" id="a" d="m 139.21 139.21 h 473.58 v 473.58 h -473.58 z" stroke-linecap="round"/>
</clipPath>
<path style="stroke: none; stroke-width: 1; stroke-dasharray: none; stroke-linecap: butt; stroke-dashoffset: 0; stroke-linejoin: miter; stroke-miterlimit: 4; is-custom-font: none; font-file-url: none; fill: rgb(0,0,0); fill-rule: nonzero; opacity: 1;" transform=" translate(-375.995, -376.004)" d="m 568.39 139.21 h -384.79 c -11.773 0 -23.066 4.6758 -31.395 13.004 s -13.004 19.621 -13.004 31.395 v 384.79 c 0 11.773 4.6758 23.066 13.004 31.395 c 8.3281 8.3242 19.621 13.004 31.395 13.004 h 384.79 c 11.773 0 23.066 -4.6797 31.395 -13.004 c 8.3242 -8.3281 13.004 -19.621 13.004 -31.395 v -384.79 c 0 -11.773 -4.6797 -23.066 -13.004 -31.395 c -8.3281 -8.3281 -19.621 -13.004 -31.395 -13.004 z m -384.79 29.598 h 384.79 c 3.9258 0 7.6875 1.5586 10.465 4.3359 c 2.7734 2.7734 4.332 6.5391 4.332 10.465 v 322.02 c -4.7383 -1.7578 -9.7422 -2.6836 -14.797 -2.7383 h -384.79 c -5.0547 0.054687 -10.059 0.98047 -14.801 2.7383 v -322.02 c 0 -3.9258 1.5586 -7.6914 4.3359 -10.465 c 2.7734 -2.7773 6.5391 -4.3359 10.465 -4.3359 z m 399.58 399.59 c 0 3.9258 -1.5586 7.6875 -4.332 10.465 c -2.7773 2.7734 -6.5391 4.332 -10.465 4.332 h -384.79 c -3.9258 0 -7.6914 -1.5586 -10.465 -4.332 c -2.7773 -2.7773 -4.3359 -6.5391 -4.3359 -10.465 v -21.105 c 0 -3.9258 1.5586 -7.6875 4.3359 -10.465 c 2.7734 -2.7734 6.5391 -4.332 10.465 -4.332 h 384.79 c 3.9258 0 7.6875 1.5586 10.465 4.332 c 2.7734 2.7773 4.332 6.5391 4.332 10.465 z" stroke-linecap="round"/>
</g>
<g transform="matrix(2.1018 0 0 2.1018 203.9945 423.5585)" id="395853">
<path style="stroke: none; stroke-width: 1; stroke-dasharray: none; stroke-linecap: butt; stroke-dashoffset: 0; stroke-linejoin: miter; stroke-miterlimit: 4; is-custom-font: none; font-file-url: none; fill: rgb(0,0,0); fill-rule: nonzero; opacity: 1;" transform=" translate(-236.5508, -338.249)" d="m 221.75 316.51 v 145.68 c 0 5.2891 2.8203 10.176 7.4023 12.82 c 4.5781 2.6406 10.219 2.6406 14.797 0 c 4.5781 -2.6445 7.4023 -7.5312 7.4023 -12.82 v -145.68 c 12.738 -4.1055 23.133 -13.434 28.586 -25.656 c 5.457 -12.227 5.457 -26.191 0 -38.414 c -5.4531 -12.227 -15.848 -21.555 -28.586 -25.66 v -12.473 c 0 -5.2891 -2.8242 -10.176 -7.4023 -12.816 c -4.5781 -2.6445 -10.219 -2.6445 -14.797 0 c -4.582 2.6406 -7.4023 7.5273 -7.4023 12.816 v 12.477 v -0.003906 c -12.738 4.1055 -23.133 13.434 -28.586 25.66 c -5.457 12.223 -5.457 26.188 0 38.414 c 5.4531 12.223 15.848 21.551 28.586 25.656 z m 14.801 -62.734 c 4.7422 0 9.2891 1.8828 12.641 5.2344 c 3.3516 3.3555 5.2383 7.9023 5.2383 12.645 c 0 4.7383 -1.8867 9.2891 -5.2383 12.641 c -3.3516 3.3516 -7.8984 5.2344 -12.641 5.2344 s -9.2891 -1.8828 -12.641 -5.2344 c -3.3555 -3.3516 -5.2383 -7.9023 -5.2383 -12.641 c 0.003906 -4.7422 1.8906 -9.2852 5.2422 -12.637 c 3.3516 -3.3555 7.8945 -5.2383 12.637 -5.2422 z" stroke-linecap="round"/>
</g>
<g transform="matrix(2.1018 0 0 2.1018 497.0898 423.5564)" id="845694">
<path style="stroke: none; stroke-width: 1; stroke-dasharray: none; stroke-linecap: butt; stroke-dashoffset: 0; stroke-linejoin: miter; stroke-miterlimit: 4; is-custom-font: none; font-file-url: none; fill: rgb(0,0,0); fill-rule: nonzero; opacity: 1;" transform=" translate(-375.9989, -338.248)" d="m 361.2 447.23 v 14.961 c 0 5.2891 2.8203 10.176 7.3984 12.82 c 4.5781 2.6406 10.219 2.6406 14.801 0 c 4.5781 -2.6445 7.3984 -7.5312 7.3984 -12.82 v -14.961 c 12.742 -4.1055 23.133 -13.434 28.59 -25.656 c 5.4531 -12.223 5.4531 -26.191 0 -38.414 c -5.457 -12.223 -15.848 -21.551 -28.59 -25.656 v -143.2 c 0 -5.2891 -2.8203 -10.176 -7.3984 -12.816 c -4.582 -2.6445 -10.223 -2.6445 -14.801 0 c -4.5781 2.6406 -7.3984 7.5273 -7.3984 12.816 v 143.2 c -12.742 4.1055 -23.137 13.434 -28.59 25.656 s -5.4531 26.191 0 38.414 c 5.4531 12.223 15.848 21.551 28.59 25.656 z m 14.801 -62.734 h -0.003906 c 4.7422 0.003906 9.2852 1.8906 12.637 5.2461 c 3.3516 3.3516 5.2305 7.9023 5.2266 12.641 c 0 4.7422 -1.8867 9.2852 -5.2422 12.637 c -3.3516 3.3516 -7.8984 5.2344 -12.641 5.2305 c -4.7383 0 -9.2852 -1.8828 -12.637 -5.2383 c -3.3516 -3.3516 -5.2344 -7.8984 -5.2344 -12.637 c 0.003906 -4.7422 1.8906 -9.293 5.2461 -12.645 c 3.3555 -3.3516 7.9023 -5.2344 12.645 -5.2344 z" stroke-linecap="round"/>
</g>
<g transform="matrix(2.1018 0 0 2.1018 790.2257 423.5669)" id="58364">
<path style="stroke: none; stroke-width: 1; stroke-dasharray: none; stroke-linecap: butt; stroke-dashoffset: 0; stroke-linejoin: miter; stroke-miterlimit: 4; is-custom-font: none; font-file-url: none; fill: rgb(0,0,0); fill-rule: nonzero; opacity: 1;" transform=" translate(-515.4664, -338.253)" d="m 500.66 388.2 v 73.996 c 0 5.2891 2.8203 10.176 7.3984 12.82 c 4.582 2.6406 10.223 2.6406 14.801 0 c 4.5781 -2.6445 7.3984 -7.5312 7.3984 -12.82 v -73.996 c 12.746 -4.1055 23.145 -13.438 28.602 -25.664 c 5.457 -12.23 5.457 -26.199 0 -38.43 c -5.457 -12.227 -15.855 -21.559 -28.602 -25.664 v -84.133 c 0 -5.2891 -2.8203 -10.176 -7.3984 -12.816 c -4.5781 -2.6445 -10.219 -2.6445 -14.801 0 c -4.5781 2.6406 -7.3984 7.5273 -7.3984 12.816 v 84.164 c -12.738 4.1055 -23.133 13.434 -28.59 25.656 c -5.4531 12.223 -5.4531 26.191 0 38.414 c 5.457 12.223 15.852 21.551 28.59 25.656 z m 14.801 -62.734 c 4.7383 0.003906 9.2852 1.8906 12.633 5.2461 c 3.3516 3.3555 5.2305 7.9023 5.2305 12.641 c -0.003906 4.7422 -1.8906 9.2891 -5.2422 12.637 c -3.3555 3.3516 -7.9023 5.2344 -12.641 5.2344 c -4.7422 -0.003906 -9.2891 -1.8867 -12.641 -5.2383 c -3.3516 -3.3555 -5.2344 -7.9023 -5.2344 -12.641 c 0.003906 -4.7461 1.8945 -9.2969 5.2539 -12.648 c 3.3555 -3.3516 7.9102 -5.2344 12.656 -5.2305 z" stroke-linecap="round"/>
</g>
<g transform="matrix(2.1018 0 0 2.1018 191.6469 885.1004)" id="870443">
<path style="stroke: none; stroke-width: 1; stroke-dasharray: none; stroke-linecap: butt; stroke-dashoffset: 0; stroke-linejoin: miter; stroke-miterlimit: 4; is-custom-font: none; font-file-url: none; fill: rgb(0,0,0); fill-rule: nonzero; opacity: 1;" transform=" translate(-230.676, -557.8389)" d="m 257.5 543.04 h -53.648 c -5.2891 0 -10.172 2.8203 -12.816 7.3984 c -2.6445 4.5781 -2.6445 10.223 0 14.801 c 2.6445 4.5781 7.5273 7.3984 12.816 7.3984 h 53.648 c 5.2852 0 10.172 -2.8203 12.816 -7.3984 c 2.6445 -4.5781 2.6445 -10.223 0 -14.801 c -2.6445 -4.5781 -7.5312 -7.3984 -12.816 -7.3984 z" stroke-linecap="round"/>
</g>
<g transform="matrix(2.1018 0 0 2.1018 509.3586 885.1004)" id="744783">
<path style="stroke: none; stroke-width: 1; stroke-dasharray: none; stroke-linecap: butt; stroke-dashoffset: 0; stroke-linejoin: miter; stroke-miterlimit: 4; is-custom-font: none; font-file-url: none; fill: rgb(0,0,0); fill-rule: nonzero; opacity: 1;" transform=" translate(-381.8361, -557.8389)" d="m 408.66 543.04 h -53.648 c -5.2852 0 -10.172 2.8203 -12.816 7.3984 s -2.6445 10.223 0 14.801 c 2.6445 4.5781 7.5312 7.3984 12.816 7.3984 h 53.648 c 5.2852 0 10.172 -2.8203 12.816 -7.3984 c 2.6445 -4.5781 2.6445 -10.223 0 -14.801 s -7.5312 -7.3984 -12.816 -7.3984 z" stroke-linecap="round"/>
</g>
<g transform="matrix(2.1018 0 0 2.1018 714.3892 885.1004)" id="84222">
<path style="stroke: none; stroke-width: 1; stroke-dasharray: none; stroke-linecap: butt; stroke-dashoffset: 0; stroke-linejoin: miter; stroke-miterlimit: 4; is-custom-font: none; font-file-url: none; fill: rgb(0,0,0); fill-rule: nonzero; opacity: 1;" transform=" translate(-479.385, -557.8389)" d="m 506.23 543.04 h -53.691 c -5.2852 0 -10.172 2.8203 -12.816 7.3984 c -2.6445 4.5781 -2.6445 10.223 0 14.801 c 2.6445 4.5781 7.5312 7.3984 12.816 7.3984 h 53.691 c 5.2891 0 10.176 -2.8203 12.82 -7.3984 c 2.6406 -4.5781 2.6406 -10.223 0 -14.801 c -2.6445 -4.5781 -7.5312 -7.3984 -12.82 -7.3984 z" stroke-linecap="round"/>
</g>
<g transform="matrix(2.1018 0 0 2.1018 341.2813 885.3904)" id="399909">
<path style="stroke: none; stroke-width: 1; stroke-dasharray: none; stroke-linecap: butt; stroke-dashoffset: 0; stroke-linejoin: miter; stroke-miterlimit: 4; is-custom-font: none; font-file-url: none; fill: rgb(0,0,0); fill-rule: nonzero; opacity: 1;" transform=" translate(-301.8684, -557.9768)" d="m 291.35 547.38 c -2.75 2.793 -4.2852 6.5586 -4.2734 10.48 s 1.5742 7.6797 4.3398 10.453 c 2.7695 2.7773 6.5234 4.3477 10.441 4.3711 c 3.9258 -0.027344 7.6875 -1.5625 10.508 -4.2891 c 2.7578 -2.8008 4.3008 -6.5781 4.293 -10.508 c 0.0625 -3.9414 -1.4883 -7.7383 -4.293 -10.508 c -2.8594 -2.6406 -6.6133 -4.1094 -10.508 -4.1094 s -7.6445 1.4688 -10.508 4.1094 z" stroke-linecap="round"/>
</g>
<g transform="matrix(2.1018 0 0 2.1018 858.9473 885.3938)" id="3439">
<path style="stroke: none; stroke-width: 1; stroke-dasharray: none; stroke-linecap: butt; stroke-dashoffset: 0; stroke-linejoin: miter; stroke-miterlimit: 4; is-custom-font: none; font-file-url: none; fill: rgb(0,0,0); fill-rule: nonzero; opacity: 1;" transform=" translate(-548.1622, -557.9785)" d="m 537.61 547.38 c -2.7461 2.8086 -4.2891 6.5781 -4.2891 10.508 c -0.042968 3.9375 1.5039 7.7227 4.2891 10.508 c 2.7852 2.7852 6.5703 4.332 10.508 4.2891 c 3.9414 0.023437 7.7305 -1.5273 10.527 -4.3047 c 2.793 -2.7812 4.3633 -6.5625 4.3594 -10.504 s -1.5781 -7.7188 -4.3789 -10.496 c -2.8594 -2.6406 -6.6133 -4.1094 -10.508 -4.1094 c -3.8945 0 -7.6445 1.4688 -10.508 4.1094 z" stroke-linecap="round"/>
</g>
</svg>