<?xml version="1.0" encoding="utf-8"?>
<!-- Svg Vector Icons : http://www.onlinewebfonts.com/icon -->
<!DOCTYPE svg PUBLIC "-//W3C//DTD SVG 1.1//EN" "http://www.w3.org/Graphics/SVG/1.1/DTD/svg11.dtd">
<svg version="1.1" xmlns="http://www.w3.org/2000/svg" xmlns:xlink="http://www.w3.org/1999/xlink" x="0px" y="0px" viewBox="0 0 1000 1000" enable-background="new 0 0 1000 1000" xml:space="preserve">
<metadata> Svg Vector Icons : http://www.onlinewebfonts.com/icon </metadata>
<g><g transform="translate(0.000000,512.000000) scale(0.100000,-0.100000)"><path d="M1422.3,4986c-477.3-126.5-830-504.1-1015.9-1092.6c-95.8-304.8-139.9-609.5-151.4-1077.2l-11.5-417.9H830h586.5l7.7-3214.4c5.8-2574.2,11.5-3235.5,30.7-3312.2c74.8-279.8,226.2-483,440.9-590.4l126.5-61.3h3258.5h3258.5l143.8,44.1c222.3,69,375.7,162.9,546.3,337.4c185.9,187.9,295.2,375.7,394.9,670.9c88.2,256.8,132.3,542.5,132.3,843.4v222.3h-603.8h-603.8V726.9c0,3697.5,5.7,3473.2-107.3,3722.4c-109.3,237.7-314.4,433.2-548.2,519.4l-120.8,46l-3105.2,3.8C1661.9,5022.4,1558.4,5020.5,1422.3,4986z M7711.3,4403.3c84.3-36.4,178.3-138,218.5-241.5c32.6-82.4,34.5-268.4,40.2-3452.1l3.8-3365.9l-1652.3-11.5c-910.5-7.7-2114.2-13.4-2673.9-13.4H2626.1v-195.5c0-695.8-136.1-1173.1-368-1291.9c-88.2-46-145.7-21.1-193.6,84.3l-42.2,90.1L2012.7-7.2l-9.6,3986.9l-42.2,147.6c-23,80.5-59.4,182.1-82.4,224.3l-38.3,78.6h2903.9C7172.7,4430.1,7659.5,4426.3,7711.3,4403.3z M1374.4,4046.8c26.8-70.9,32.6-174.4,40.2-569.3l7.7-484.9H1131H841.5l11.5,120.8c46,465.8,162.9,826.1,341.2,1056.1l59.4,74.8l44.1-55.6C1320.7,4158,1355.2,4094.7,1374.4,4046.8z M9131.6-3307.9c-78.6-366.1-222.4-628.7-414-759c-203.2-136.1-11.5-128.4-3017-128.4H2992.2l59.4,159.1c57.5,159.1,116.9,423.6,139.9,640.2l13.4,118.8l184,5.7c103.5,3.8,1439.5,9.6,2971,11.5l2783.2,3.8L9131.6-3307.9z"/><path d="M5052.7,3690.3c-5.8-17.3-11.5-88.2-11.5-157.2v-128.4l-168.7-5.7c-392.9-11.5-747.5-161-969.9-408.3c-120.8-134.2-208.9-299-272.2-506c-49.8-159.1-53.7-197.4-53.7-517.5c-1.9-304.8,3.8-362.3,42.2-496.5c120.8-419.8,373.8-703.5,776.3-870.2c143.8-61.3,387.2-118.8,496.5-118.8c34.5,0,82.4-5.7,107.3-11.5l42.2-11.5l-3.8-661.3l-5.8-661.3l-607.6,1.9l-609.5,3.8v-404.4v-402.5h613.4h613.4v-141.8c0-212.8-13.4-203.2,251.1-203.2h228.1v170.6v168.7l130.3,13.4c435.1,44.1,849.1,253,1073.4,538.6c101.6,130.3,189.8,310.5,237.7,486.9c53.7,199.3,57.5,586.5,7.7,778.2c-78.6,302.9-254.9,600-479.2,810.8c-243.4,228.1-450.5,310.5-770.6,310.5h-199.3v670.9v670.9h498.4h498.4v392.9v392.9h-195.5c-109.3,0-333.5,5.8-498.4,13.4l-302.9,11.5v151.4v149.5h-228.1C5102.5,3720.9,5062.3,3715.2,5052.7,3690.3z M5041.2,1938.3v-670.9H4978c-34.5,0-113.1,13.4-172.5,28.8c-341.2,88.2-498.4,295.2-498.4,651.7c-1.9,145.7,7.7,189.8,47.9,279.9c55.6,122.7,155.2,230,264.5,285.6c97.8,49.8,256.8,92,350.8,93.9l70.9,1.9V1938.3z M5848.2,445.2c139.9-53.7,237.7-126.5,304.8-228.1c78.6-118.8,103.5-214.7,101.6-396.8c-1.9-274.1-120.8-475.4-339.3-577c-99.7-46-260.7-84.3-348.9-84.3h-46v672.8v674.7l113.1-11.5C5696.7,487.3,5792.6,466.3,5848.2,445.2z"/></g></g>
</svg>