<svg width="28" height="28" viewBox="0 0 28 28" xmlns="http://www.w3.org/2000/svg" xmlns:xlink="http://www.w3.org/1999/xlink">
    <defs>
        <path d="M15.43 0a4.455 4.455 0 0 1 4.48 4.468v2.085c0 .695-.597 1.192-1.195 1.192-.696 0-1.194-.596-1.194-1.192V4.37l-.005-.154c-.074-1.114-.943-1.931-2.086-1.931H4.48c-1.095 0-2.09.893-2.09 2.085V23.63c0 1.192.895 2.085 2.09 2.085h10.95c1.095 0 2.09-.893 2.09-2.085v-2.184l.007-.128c.057-.627.535-1.064 1.188-1.064l.12.007c.555.06 1.075.53 1.075 1.086v2.184A4.455 4.455 0 0 1 15.43 28H4.48C1.99 27.9 0 26.014 0 23.532V4.468A4.455 4.455 0 0 1 4.48 0zm7.168 9.83c.398-.397 1.095-.497 1.593 0l3.484 3.376.066.07c.174.194.321.46.233.724 0 .298-.1.596-.3.794L24.29 18.17c-.199.199-.498.298-.796.298-.299 0-.598-.1-.797-.298-.199-.198-.298-.496-.298-.794 0-.298.1-.596.298-.794l1.394-1.39H11.846c-.696 0-1.194-.497-1.194-1.192s.597-1.191 1.194-1.191h12.146l-1.394-1.39c-.2-.2-.299-.497-.299-.795 0-.298.1-.596.299-.794z" id="k43hly6pia"/>
    </defs>
    <g fill="none" fill-rule="evenodd">
        <mask id="7vxw9uwd9b" fill="#fff">
            <use xlink:href="#k43hly6pia"/>
        </mask>
        <use fill="#616161" fill-rule="nonzero" xlink:href="#k43hly6pia"/>
        <g mask="url(#7vxw9uwd9b)" fill="#000">
            <path d="M0 0h28v28H0z"/>
        </g>
    </g>
</svg>
