<svg width="28" height="29" viewBox="0 0 28 29" xmlns="http://www.w3.org/2000/svg" xmlns:xlink="http://www.w3.org/1999/xlink">
    <defs>
        <path d="M12.251 13.222c3.485 0 6.306-2.959 6.306-6.611C18.557 2.959 15.736 0 12.25 0 8.767 0 5.945 2.959 5.945 6.611c0 3.652 2.822 6.61 6.306 6.61m0-10.329c1.95 0 3.548 1.673 3.548 3.719s-1.597 3.72-3.548 3.72c-1.95 0-3.548-1.674-3.548-3.72 0-2.046 1.597-3.719 3.548-3.719" id="yyqjjeb2la"/>
    </defs>
    <g fill="none" fill-rule="evenodd">
        <path d="M26.573 19.924c0-.36-.045-.686-.09-1.03l1.244-1.187a.883.883 0 0 0 .168-1.055l-.841-1.566a.876.876 0 0 0-1.073-.409l-1.022.372a.898.898 0 0 1-.848-.149 5.497 5.497 0 0 0-.847-.528.901.901 0 0 1-.494-.625l-.237-1.275a.88.88 0 0 0-.864-.719H20.09a.88.88 0 0 0-.864.719l-.237 1.275a.898.898 0 0 1-.493.625c-.3.15-.583.327-.847.528a.898.898 0 0 1-.849.149l-1.022-.372a.876.876 0 0 0-1.073.409l-.841 1.566a.883.883 0 0 0 .168 1.055l1.245 1.188c-.046.343-.091.67-.091 1.03s.045.685.09 1.029l-1.244 1.187a.883.883 0 0 0-.168 1.055l.841 1.566a.876.876 0 0 0 1.073.41l1.022-.372a.898.898 0 0 1 .849.148c.264.201.548.378.847.528.252.127.44.35.493.626l.237 1.275a.88.88 0 0 0 .864.718h1.578a.88.88 0 0 0 .864-.718l.237-1.275a.901.901 0 0 1 .494-.626c.298-.15.582-.327.847-.528a.898.898 0 0 1 .848-.148l1.022.371a.876.876 0 0 0 1.073-.409l.841-1.566a.883.883 0 0 0-.168-1.055l-1.245-1.187c.046-.344.091-.67.091-1.03m-5.535 3.78c-1.931 0-3.51-1.7-3.51-3.78 0-2.079 1.579-3.78 3.51-3.78 1.932 0 3.51 1.701 3.51 3.78 0 2.08-1.578 3.78-3.51 3.78m-10.181-9C6.87 14.89 1.2 16.558.212 21c-.336 1.507-.215 3.076-.034 4.609.02.179.046.366.148.514.203.291.614.318.97.318H11.91c.338 0 .763-.06.863-.383.042-.133.009-.277-.024-.413-.154-.604-.354-.9-.62-1.463-.094-.2-.2-.402-.368-.544-.311-.267-.76-.277-1.167-.275-2.413.017-4.827.034-7.242.049-.108.001-.227 0-.31-.069a.246.246 0 0 1-.046-.047c-.068-.09-.076-.22-.077-.337-.01-.524-.08-1.833.173-2.292.221-.4.61-.678.997-.922a14.105 14.105 0 0 1 7.075-2.152c.105-.003.217-.008.294-.078a.44.44 0 0 0 .114-.218c.191-.672.372-.9.439-1.597.02-.207.032-.429-.067-.612-.169-.318-.57-.387-.939-.387-.051 0-.1.001-.15.003z" fill="#606161"/>
        <mask id="tyc3elppjb" fill="#fff">
            <use xlink:href="#yyqjjeb2la"/>
        </mask>
        <use fill="#606161" xlink:href="#yyqjjeb2la"/>
        <g mask="url(#tyc3elppjb)" fill="#000">
            <path d="M0 0h28v28H0z"/>
        </g>
    </g>
</svg>
