<svg width="28" height="28" viewBox="0 0 28 28" xmlns="http://www.w3.org/2000/svg" xmlns:xlink="http://www.w3.org/1999/xlink">
    <defs>
        <path d="M10.425 0c1.105 0 2.048.7 2.409 1.68A2.565 2.565 0 0 1 15.037.008L15.242 0H23.1a2.567 2.567 0 0 1 2.56 2.375l.007.192v7.858c0 1.105-.7 2.048-1.68 2.409a2.565 2.565 0 0 1 1.672 2.203l.008.205V23.1a2.567 2.567 0 0 1-2.375 2.56l-.192.007h-7.858c-1.106 0-2.048-.7-2.41-1.68a2.565 2.565 0 0 1-2.202 1.672l-.205.008H2.567a2.567 2.567 0 0 1-2.56-2.375L0 23.1v-7.858c0-1.106.7-2.048 1.68-2.41A2.565 2.565 0 0 1 .008 10.63L0 10.425V2.567A2.567 2.567 0 0 1 2.375.007L2.567 0h7.858zm12.908 15.167h-8.166v8.166h8.166v-8.166zm-12.833 0H2.333v8.166H10.5v-8.166zm2.916-3.5-.01.032a2.96 2.96 0 0 1-1.74 1.718c.81.297 1.453.94 1.751 1.75.297-.81.94-1.453 1.75-1.751a2.954 2.954 0 0 1-1.651-1.512l-.1-.237zm9.917-9.334h-8.166V10.5h8.166V2.333zm-12.833 0H2.333V10.5H10.5V2.333z" id="exh6kz8qta"/>
    </defs>
    <g transform="translate(1.167 1.167)" fill="none" fill-rule="evenodd">
        <mask id="idjvje7jnb" fill="#fff">
            <use xlink:href="#exh6kz8qta"/>
        </mask>
        <use fill="#000" fill-rule="nonzero" xlink:href="#exh6kz8qta"/>
        <g mask="url(#idjvje7jnb)" fill="#000">
            <path d="M-1.458-1.458h28v28h-28z"/>
        </g>
    </g>
</svg>
