<?xml version="1.0" encoding="utf-8"?>
<!-- Svg Vector Icons : http://www.onlinewebfonts.com/icon -->
<!DOCTYPE svg PUBLIC "-//W3C//DTD SVG 1.1//EN" "http://www.w3.org/Graphics/SVG/1.1/DTD/svg11.dtd">
<svg version="1.1" xmlns="http://www.w3.org/2000/svg" xmlns:xlink="http://www.w3.org/1999/xlink" x="0px" y="0px" viewBox="0 0 1000 1000" enable-background="new 0 0 1000 1000" xml:space="preserve">
<metadata> Svg Vector Icons : http://www.onlinewebfonts.com/icon </metadata>
<g><path d="M78.9,909.4c7.9-120.1,66-231.9,159.4-306.7l5.6-4.2v0.1c5.3-3.3,11.4-5,17.6-5c21.4,0,34.2,10.4,34.2,28.2c0,10.3-4.7,19.9-12.5,26.5l0.1,0.1l-5,3.6c-78.3,57.3-122.4,144.1-131,258.2l-0.1,1.4c0,0.9,0.1,1.8,0.1,2.8c0,19.3-15.2,34.9-34.1,34.9c-18.2,0-33.1-14.6-34.1-32.9h-0.7L78.9,909.4L78.9,909.4z M188.8,324.7C188.8,151.2,328.5,10,500.1,10c171.7,0,311.3,141.2,311.3,314.7c0,93.6-40.3,180.8-111.2,240.9c127.1,69.5,211.6,201.9,221,348.1l0.4,6.1c0,0.1,0.1,0.3,0.1,0.4v0.6l0,0c0,0.3,0,0.6,0,0.9c0,16.3-13,29.6-28.8,29.6c-16.1,0-29-13.4-29-29.6c0-0.3,0-0.6,0-0.9h-0.5l-0.4-6C852.4,775.8,766.4,654.2,643.2,604c-36.8,17.4-92.8,35.6-143.1,35.6c-46.7,0-91.9-10.4-135-31.3l-31.4-18.9l-25.8-17.4C232.3,511.7,188.8,421.6,188.8,324.7L188.8,324.7z M500.1,576.1c137.1,0,248.9-112.8,248.9-251.4S637.4,73.3,500.1,73.3C363,73.3,251.3,186,251.3,324.7C251.3,463.3,363,576.1,500.1,576.1L500.1,576.1z"/><path d="M496.9,990L382.5,880.6l35.1-218h155.3l27.2,217.6L496.9,990z M439.6,861.4l55.3,52.9l49.2-52.4l-18.3-146h-62.8L439.6,861.4z"/></g>
</svg>