<svg xmlns="http://www.w3.org/2000/svg" xmlns:xlink="http://www.w3.org/1999/xlink" version="1.1" width="1000" height="1000" viewBox="0 0 1000 1000" xml:space="preserve">
<desc>Created with Fabric.js 3.5.0</desc>
<defs>
</defs>
<rect x="0" y="0" width="100%" height="100%" fill="rgba(255,255,255,0)"/>
<g transform="matrix(1.2117 0 0 1.2117 499.9833 499.9841)" id="482920">
<path style="stroke: none; stroke-width: 1; stroke-dasharray: none; stroke-linecap: butt; stroke-dashoffset: 0; stroke-linejoin: miter; stroke-miterlimit: 4; is-custom-font: none; font-file-url: none; fill: rgb(39,39,40); fill-rule: nonzero; opacity: 1;" vector-effect="non-scaling-stroke" transform=" translate(-512, -512)" d="M 512 101.7 c -226.6 0 -410.3 183.7 -410.3 410.3 S 285.4 922.3 512 922.3 S 922.3 738.6 922.3 512 S 738.6 101.7 512 101.7 z m 0 775.5 c -193 0 -351.1 -149.8 -364.3 -339.4 h 132 c 7.5 0 14 -3.9 17.7 -9.8 L 426 399.4 l 125.8 126.2 c 8.2 8.2 21.5 8.2 29.7 0.1 c 8.2 -8.2 8.2 -21.5 0.1 -29.7 L 440.9 354.9 c -4.1 -4.1 -9.5 -6.2 -14.9 -6.2 s -10.8 2 -14.9 6.1 L 270.3 495.7 H 147.2 c 8.5 -194.1 168.6 -348.9 364.8 -348.9 c 196.2 0 356.3 154.8 364.8 348.9 H 728.2 c -6.7 0 -12.7 3.2 -16.5 8.1 L 583.9 631.7 l -127 -127.4 c -8.2 -8.2 -21.5 -8.2 -29.7 -0.1 c -8.2 8.2 -8.2 21.5 -0.1 29.7 L 567.8 675 c 7.4 7.4 18.9 8.1 27.1 2.2 c 2.8 -1 5.4 -2.6 7.6 -4.9 l 134.7 -134.7 h 139.1 C 863.1 727.4 705 877.2 512 877.2 z" stroke-linecap="round"/>
</g>
</svg>