<svg width="20" height="20" viewBox="0 0 20 20" xmlns="http://www.w3.org/2000/svg" xmlns:xlink="http://www.w3.org/1999/xlink">
    <defs>
        <path d="m15.292 4.23.01-.01-3.094-3.19a.716.716 0 0 0-1.027 0 .771.771 0 0 0 0 1.06l1.532 1.58c-1.018.4-1.707 1.47-1.532 2.71.155 1.1 1.066 1.99 2.133 2.11.456.05.853-.03 1.231-.2v7.21c0 .55-.436 1-.97 1-.533 0-.969-.45-.969-1V11c0-1.1-.873-2-1.94-2h-.969V2c0-1.1-.873-2-1.94-2H1.94C.873 0 0 .9 0 2v15c0 .55.436 1 .97 1h7.757c.534 0 .97-.45.97-1v-6.5h1.455v4.86c0 1.31.911 2.5 2.172 2.63C14.778 18.14 16 16.97 16 15.5V6c0-.69-.272-1.32-.708-1.77zM7.758 7H1.939V3c0-.55.437-1 .97-1h3.879c.533 0 .97.45.97 1v4zm5.818 0c-.534 0-.97-.45-.97-1s.436-1 .97-1c.533 0 .97.45.97 1s-.437 1-.97 1z" id="42qm8o0sca"/>
    </defs>
    <g transform="translate(3 1)" fill="none" fill-rule="evenodd">
        <mask id="i0wzhgbhgb" fill="#fff">
            <use xlink:href="#42qm8o0sca"/>
        </mask>
        <use fill="#000" xlink:href="#42qm8o0sca"/>
        <g mask="url(#i0wzhgbhgb)" fill="#1C8C5F">
            <path d="M-3.333-1.667h21v21h-21z"/>
        </g>
    </g>
</svg>
